<?xml version="1.0" encoding="utf-8"?>
<!-- Generator: Adobe Illustrator 21.0.0, SVG Export Plug-In . SVG Version: 6.00 Build 0)  -->
<svg version="1.1" id="Ebene_1" xmlns="http://www.w3.org/2000/svg" xmlns:xlink="http://www.w3.org/1999/xlink" x="0px" y="0px"
	 viewBox="0 0 1206 172" style="enable-background:new 0 0 1206 172;" xml:space="preserve">
<style type="text/css">
	.st0{opacity:0.2;enable-background:new    ;}
	.st1{fill:#138DE7;}
	.st2{fill:#FFFFFF;}
	.st3{font-family:'MyriadPro-Regular';}
	.st4{font-size:60px;}
	.st5{opacity:0.2;fill:#FFFFFF;enable-background:new    ;}
</style>
<g>
	<circle class="st0" cx="793.7" cy="110.6" r="56.1"/>
	<circle class="st1" cx="793.7" cy="108.6" r="56.1"/>
	<path class="st0" d="M759.7,108.6v8.6V140c0,4.8,3.8,8.6,8.5,8.6h31.2h8.3V140v-22.9c0-4.8-3.6-8.6-8.4-8.6h-31.2H759.7z
		 M827.8,108.6l-16,10v20l16,10v-20V108.6z"/>
	<path class="st2" d="M759.7,106.6v8.6v22.9c0,4.8,3.8,8.6,8.5,8.6h31.2h8.3v-8.6v-22.9c0-4.8-3.6-8.6-8.4-8.6h-31.2H759.7z
		 M827.8,106.6l-16,10v20l16,10v-20V106.6z"/>
	<path d="M869.9,64.3c-0.5-4.1-3.9-7.1-8-7.2h-12c-3.3-0.1-6.1-2.5-6.8-5.8l-6.4-25.3C834.2,14.1,823.9,5.4,811.7,5
		c-9.4,0-16,10.4-13,20.4v0.2c0.8,2.1-0.3,4.4-2.5,5.2c-0.3,0.1-0.7,0.2-1,0.2c-1.6-0.1-3-1.2-3.5-2.8l-2.2-7.3
		c-1.8-7.4-7.4-13.2-14.6-15.4c-10.5-2.2-20.9,4.4-23.3,14.9l-9,31.1c-0.7,3.1-3.5,5.4-6.7,5.5h-12.3c-4.2,0-7.7,3.2-8.2,7.3
		c-1,4.6,1.9,9,6.5,10c0.4,0.1,0.8,0.1,1.2,0.2h138.9c4.6-0.3,8.2-4.3,7.9-8.9C870,65.1,870,64.7,869.9,64.3z"/>
	<path d="M771.7,100.5h5.4c5.9,0,10.7-4,10.7-8.8c0-2.4,2.4-4.4,5.4-4.4c3,0,5.4,2,5.4,4.4c0,4.9,4.8,8.8,10.7,8.8h3
		c7.2,0,13-4.8,13-10.7c0-1.4,1.3-2.5,3-2.5c1.3,0,2.4-0.9,2.4-1.9l0,0v-0.5c0-1.1-1.1-1.9-2.4-1.9l0,0H758c-1.3,0-2.4,0.9-2.4,1.9
		v0.5c0,1.1,1.1,1.9,2.4,1.9c1.7,0,3,1.1,3,2.5l0,0v1.9C761,96.5,765.8,100.5,771.7,100.5z"/>
</g>
<text transform="matrix(1 0 0 1 660.3159 101.4634)" class="st3 st4">=</text>
<g>
	<path d="M607.5,107h-0.7c-1.2,0-2.3-1-2.3-2.3c0-0.4,0.1-0.7,0.2-1c2.2-4.3,0.4-9.6-3.9-11.8c-1.2-0.6-2.5-0.9-3.9-0.9h-10
		c-4.8,0-9.2,2.7-11.4,7l-2.3,4.8c-0.6,1.1-2,1.6-3.1,1c-0.4-0.2-0.8-0.6-1-1l-2.4-4.8c-2.2-4.3-6.6-7.1-11.4-7h-10
		c-4.9,0-8.8,3.9-8.8,8.8c0,1.4,0.3,2.7,0.9,4c0.6,1.1,0.1,2.5-1,3c-0.3,0.2-0.7,0.2-1,0.2h-0.7c-10.8,0-19.6,8.8-19.6,19.6V139
		c0,4.4,25.1,8,56,8s56-3.6,56-8v-12.4C627.1,115.8,618.3,107,607.5,107z M571,134.1c-2.4,0-4.3-1.9-4.3-4.3s1.9-4.3,4.3-4.3
		s4.3,1.9,4.3,4.3S573.4,134.1,571,134.1z"/>
	<path d="M614.1,55.1c-0.3-2.3-2.2-4-4.5-4h-6.7c-1.9-0.1-3.4-1.4-3.8-3.2l-3.6-14.1c-1.4-6.7-7.1-11.5-13.9-11.8
		c-5.2,0-8.9,5.8-7.3,11.4v0.1c0.4,1.2-0.2,2.5-1.4,2.9c-0.2,0.1-0.4,0.1-0.6,0.1c-0.9-0.1-1.7-0.7-1.9-1.6l-1.2-4.1
		c-1-4.1-4.1-7.4-8.2-8.6c-5.9-1.2-11.7,2.5-13,8.3l-5,17.4c-0.4,1.7-1.9,3-3.7,3.1h-6.9c-2.3,0-4.3,1.8-4.5,4.1
		c-0.5,2.5,1.1,5,3.6,5.6c0.2,0,0.5,0.1,0.7,0.1h77.6c2.6-0.2,4.6-2.4,4.4-5C614.2,55.6,614.2,55.4,614.1,55.1z"/>
	<path d="M553.8,82.3h4.3c4.8,0,8.6-3.9,8.6-8.6c0-2.4,1.9-4.3,4.3-4.3s4.3,1.9,4.3,4.3c0,4.8,3.9,8.6,8.6,8.6h2.4
		c5.8,0,10.5-4.7,10.5-10.5c0-1.3,1.1-2.4,2.4-2.4c1,0,1.9-0.8,1.9-1.9l0,0V67c0-1-0.8-1.9-1.9-1.9l0,0h-56.6c-1,0-1.9,0.8-1.9,1.9
		v0.5c0,1,0.8,1.9,1.9,1.9c1.3,0,2.4,1.1,2.4,2.4v0v1.9C545.2,78.5,549,82.3,553.8,82.3z"/>
</g>
<g>
	<circle class="st0" cx="359.4" cy="85.6" r="63.4"/>
	<circle class="st1" cx="359.4" cy="83.4" r="63.4"/>
	<path class="st0" d="M320.9,63v9.7v25.9c0,5.4,4.3,9.7,9.6,9.7h35.3h9.4v-9.7V72.7c0-5.4-4.1-9.7-9.4-9.7h-35.3H320.9z M397.8,63
		l-18.1,11.3v22.6l18.1,11.3V85.6V63z"/>
	<path class="st2" d="M320.9,60.7v9.7v25.9c0,5.4,4.3,9.7,9.6,9.7h35.3h9.4v-9.7V70.4c0-5.4-4.1-9.7-9.4-9.7h-35.3H320.9z
		 M397.8,60.7l-18.1,11.3v22.6l18.1,11.3V83.4V60.7z"/>
	<path class="st5" d="M359.4,20c-35,0-63.4,28.4-63.4,63.4c0,0.4,0,0.7,0,1.1c0.6-34.5,28.8-62.2,63.3-62.2
		c34.5,0,62.7,27.7,63.3,62.2c0-0.4,0-0.7,0.1-1.1C422.7,48.4,394.4,20,359.4,20z"/>
</g>
<text transform="matrix(1 0 0 1 450.8335 101.333)" class="st3 st4">+</text>
</svg>
