<?xml version="1.0" encoding="utf-8"?>
<!-- Generator: Adobe Illustrator 21.0.0, SVG Export Plug-In . SVG Version: 6.00 Build 0)  -->
<svg version="1.1" id="Ebene_1" xmlns="http://www.w3.org/2000/svg" xmlns:xlink="http://www.w3.org/1999/xlink" x="0px" y="0px"
	 viewBox="0 0 500 489.1" style="enable-background:new 0 0 500 489.1;" xml:space="preserve">
<style type="text/css">
	.st0{opacity:0.2;enable-background:new    ;}
	.st1{fill:#138DE7;}
	.st2{fill:#FFFFFF;}
	.st3{display:none;opacity:0.2;fill:#FFFFFF;enable-background:new    ;}
</style>
<circle class="st0" cx="252.9" cy="319.2" r="168.5"/>
<circle class="st1" cx="252.9" cy="313.2" r="168.5"/>
<path class="st0" d="M150.6,313v25.8v68.8c0,14.3,11.4,25.8,25.6,25.8H270H295v-25.8v-68.8c0-14.3-10.9-25.8-25.1-25.8h-93.8H150.6z
	 M355.2,313l-48.1,30.1v60.2l48.1,30.1v-60.2V313z"/>
<path class="st2" d="M150.6,307v25.8v68.8c0,14.3,11.4,25.8,25.6,25.8H270H295v-25.8v-68.8c0-14.3-10.9-25.8-25.1-25.8h-93.8H150.6z
	 M355.2,307l-48.1,30.1v60.2l48.1,30.1v-60.2V307z"/>
<path class="st3" d="M250.9,146.8c-93.1,0-168.5,75.4-168.5,168.5c0,1,0.1,2,0.1,3c1.7-91.8,76.6-165.4,168.4-165.4
	c91.8,0.1,166.7,73.6,168.3,165.4c0.1-1,0.1-2,0.2-3C419.4,222.3,344,146.8,250.9,146.8z"/>
<path d="M481.9,180c-1.6-12.2-11.8-21.4-24.1-21.7h-36.2c-10-0.4-18.4-7.6-20.3-17.4L382,65c-7.4-35.8-38.4-62-74.9-63.3
	c-28.2,0-48,31.3-39.1,61.4v0.7c2.3,6.3-1,13.3-7.4,15.6c-1,0.4-2,0.6-3.1,0.7c-4.9-0.3-9.1-3.7-10.4-8.5l-6.5-21.9
	c-5.5-22.1-22.2-39.7-44-46.4c-31.7-6.6-62.8,13.3-70.1,44.9l-26.9,93.5c-2.2,9.4-10.4,16.1-20.1,16.5H42.4
	c-12.5,0.1-23,9.5-24.5,21.9c-2.9,13.7,5.8,27.1,19.5,30c1.2,0.3,2.5,0.4,3.7,0.5h417.6c13.9-0.8,24.6-12.8,23.7-26.8
	C482.3,182.4,482.2,181.2,481.9,180z"/>
<path d="M186.8,288.7h16.1c17.7,0,32.1-11.9,32.1-26.5c0-7.3,7.2-13.3,16.1-13.3c8.9,0,16.1,5.9,16.1,13.3
	c0,14.6,14.4,26.5,32.1,26.5h9c21.6,0,39.2-14.5,39.2-32.3c0-4.1,4-7.4,9-7.4c3.9,0,7.1-2.6,7.1-5.8l0,0v-1.6c0-3.2-3.2-5.8-7.1-5.8
	l0,0H145.7c-3.9,0-7.1,2.6-7.1,5.8v1.6c0,3.2,3.2,5.8,7.1,5.8c5,0,9,3.3,9,7.4v0v5.8C154.7,276.8,169.1,288.7,186.8,288.7z"/>
</svg>
